<svg width="20" height="22" viewBox="0 0 20 22" fill="none" xmlns="http://www.w3.org/2000/svg">
<path d="M11.8965 20C11.7207 20.3031 11.4683 20.5547 11.1647 20.7295C10.8611 20.9044 10.5169 20.9965 10.1665 20.9965C9.81612 20.9965 9.47189 20.9044 9.16828 20.7295C8.86466 20.5547 8.61232 20.3031 8.4365 20M16.1665 7C16.1665 5.4087 15.5344 3.88258 14.4091 2.75736C13.2839 1.63214 11.7578 1 10.1665 1C8.5752 1 7.04908 1.63214 5.92386 2.75736C4.79865 3.88258 4.1665 5.4087 4.1665 7C4.1665 14 1.1665 16 1.1665 16H19.1665C19.1665 16 16.1665 14 16.1665 7Z" stroke="#A5A5A6" stroke-width="1.5" stroke-linecap="round" stroke-linejoin="round"/>
</svg>
