<svg width="24" height="20" viewBox="0 0 24 20" fill="none" xmlns="http://www.w3.org/2000/svg">
<path d="M20.6736 2.60999C20.1629 2.099 19.5564 1.69364 18.889 1.41708C18.2215 1.14052 17.5061 0.998169 16.7836 0.998169C16.0611 0.998169 15.3457 1.14052 14.6783 1.41708C14.0108 1.69364 13.4044 2.099 12.8936 2.60999L11.8336 3.66999L10.7736 2.60999C9.74192 1.5783 8.34265 0.998704 6.88362 0.998704C5.42458 0.998704 4.02531 1.5783 2.99362 2.60999C1.96192 3.64169 1.38232 5.04096 1.38232 6.49999C1.38232 7.95903 1.96192 9.3583 2.99362 10.39L4.05361 11.45L11.8336 19.23L19.6136 11.45L20.6736 10.39C21.1846 9.87924 21.59 9.27281 21.8665 8.60535C22.1431 7.93789 22.2854 7.22248 22.2854 6.49999C22.2854 5.77751 22.1431 5.0621 21.8665 4.39464C21.59 3.72718 21.1846 3.12075 20.6736 2.60999V2.60999Z" stroke="#A5A5A6" stroke-width="1.5" stroke-linecap="round" stroke-linejoin="round"/>
</svg>
